<svg width="18" height="20" viewBox="0 0 18 20" fill="none" xmlns="http://www.w3.org/2000/svg">
<path d="M16.0041 10.9095C15.9916 11.0469 16.0077 11.1853 16.0513 11.3162L16.7913 13.536C16.7319 13.5688 16.6693 13.6032 16.6037 13.6391C16.0457 13.9441 15.2708 14.3522 14.4024 14.7657C12.6148 15.6167 10.6044 16.4043 9.25725 16.4925C9.18262 16.4973 9.09796 16.5 9 16.5C7.95104 16.5 6.86469 16.0638 5.62334 15.4279C5.34467 15.2851 5.05404 15.1296 4.75482 14.9694C3.80452 14.4608 2.76755 13.9057 1.75197 13.5669C1.57124 13.5066 1.40493 13.4496 1.25506 13.3971L1.94868 11.3162C1.99231 11.1853 2.00838 11.0469 1.99589 10.9095L1.81072 8.8725C1.42639 4.64498 4.75504 1 9 1C13.245 1 16.5736 4.64498 16.1893 8.8725L16.0041 10.9095Z" stroke="black" stroke-width="2" stroke-linejoin="round"/>
<path d="M4.89451 8.4472C5.05435 8.1275 5.37042 7.76509 5.84765 7.37909C6.31622 7.0001 6.88571 6.64166 7.48193 6.31375C8.07532 5.98738 8.67467 5.70233 9.19608 5.46463C9.37073 5.38501 9.54491 5.30713 9.70903 5.23375C10.0077 5.10023 10.273 4.98159 10.4473 4.89446C11.0324 4.60193 11.0392 4.6046 11.1021 4.6291C11.1079 4.63136 11.1141 4.6338 11.1214 4.63622C11.221 4.66943 11.4314 4.77507 11.7976 5.0998C12.1582 5.41963 12.6218 5.90816 13.2318 6.64021C13.6657 7.16077 13.943 7.9747 14.0548 9.03627C14.1649 10.0818 14.1033 11.2579 13.9594 12.3915C13.6918 14.4995 11.746 16 9.41226 16C6.76422 16 4.59567 14.0673 4.55852 11.5934C4.54774 10.8757 4.56679 10.2006 4.62828 9.63038C4.69224 9.03729 4.79341 8.64943 4.89451 8.4472Z" stroke="black" stroke-width="2" stroke-linejoin="round"/>
<path d="M4 19C4 19 5 16.5 9 16.5C13 16.5 14 19 14 19" stroke="black" stroke-width="2" stroke-linecap="round" stroke-linejoin="round"/>
</svg>
