<svg width="19" height="19" viewBox="0 0 19 19" fill="none" xmlns="http://www.w3.org/2000/svg">
<path d="M17 9C17 10.0427 16.801 11.0365 16.4399 11.9472C16.2865 12.3342 16.3027 12.7845 16.3305 13.1008C16.3626 13.4652 16.4358 13.8788 16.5276 14.2996C16.712 15.1448 16.9929 16.1143 17.2594 16.9638C17.2629 16.9749 17.2622 16.9782 17.2601 16.9848C17.2565 16.9966 17.2451 17.019 17.2202 17.0416C17.1953 17.0643 17.1707 17.0745 17.156 17.0777C17.1465 17.0797 17.1405 17.0797 17.1284 17.0747C16.3827 16.7681 15.5416 16.4494 14.8052 16.24C14.4392 16.1359 14.0686 16.05 13.7325 16.0118C13.4477 15.9795 12.9855 15.9534 12.5761 16.1584C11.5011 16.6967 10.2874 17 9 17C4.58172 17 1 13.4183 1 9C1 4.58172 4.58172 1 9 1C13.4183 1 17 4.58172 17 9Z" stroke="black" stroke-width="2"/>
</svg>
