<svg width="19" height="19" viewBox="0 0 19 19" fill="none" xmlns="http://www.w3.org/2000/svg">
<path opacity="0.8" d="M18 9.5C18 10.6077 17.7886 11.6637 17.4049 12.6314C17.2001 13.1479 17.2126 13.8114 17.2541 14.3467C17.2996 14.935 17.404 15.596 17.5164 16.222C17.5826 16.5903 17.6574 16.9764 17.7262 17.332C17.7346 17.3751 17.7428 17.4177 17.751 17.4598C17.13 17.2441 16.5528 17.0714 16.025 16.9579C15.0904 16.7568 14.1184 16.6959 13.2996 17.1058C12.1573 17.6777 10.8677 18 9.5 18C4.80558 18 1 14.1944 1 9.5C1 4.80558 4.80558 1 9.5 1C14.1944 1 18 4.80558 18 9.5Z" stroke="black" stroke-width="2"/>
</svg>
