<svg width="20" height="17" viewBox="0 0 20 17" fill="none" xmlns="http://www.w3.org/2000/svg">
<path opacity="0.8" d="M14.5022 1H14.5028C16.923 1 19 2.92207 19 6.2383C19 7.72855 18.4018 9.11598 16.9436 10.6544C15.4859 12.1923 13.2243 13.8205 9.99984 15.7671C6.77529 13.8208 4.51317 12.1924 3.05528 10.6538C1.59832 9.11611 1 7.72864 1 6.2383C1 2.92207 3.07698 1 5.49717 1L5.49793 1C6.8227 0.99899 8.07571 1.60036 8.90346 2.63422L9.21937 3.02879L10 4.0038L10.7806 3.02879L11.0965 2.63422C11.9243 1.60033 13.1773 0.99899 14.5018 1L14.5019 1L14.5022 1Z" stroke="black" stroke-width="2"/>
</svg>
