<svg width="17" height="20" viewBox="0 0 17 20" fill="none" xmlns="http://www.w3.org/2000/svg">
<mask id="path-1-inside-1" fill="white">
<path d="M1.34817 12.6314C1.34817 12.105 0.821764 11.5787 0.295448 9.47346C-1.28336 4.21032 3.97975 1.05255 3.97975 1.05255C3.97975 1.05255 9.76922 0.526324 11.8745 5.26318C12.314 6.25204 13.1738 8.14148 13.4534 8.42106C13.7331 8.70064 15.0324 8.94737 16.085 10.5261C17.7367 13.0034 16.085 13.684 16.085 13.684L1.34817 18.9471C1.34817 18.9471 0.327935 18.9473 0.311742 16.842C0.295549 14.7367 1.34817 13.1577 1.34817 12.6314Z"/>
</mask>
<path d="M0.295448 9.47346L2.23573 8.98839L2.22446 8.94331L2.21111 8.8988L0.295448 9.47346ZM0.311742 16.842L2.31168 16.8266L0.311742 16.842ZM1.34817 18.9471L1.34843 20.9471C1.57759 20.9471 1.80504 20.9077 2.02084 20.8306L1.34817 18.9471ZM16.085 13.684L16.7577 15.5675L16.8027 15.5514L16.8469 15.5332L16.085 13.684ZM16.085 10.5261L17.749 9.41661V9.41661L16.085 10.5261ZM11.8745 5.26318L10.0469 6.07546V6.07546L11.8745 5.26318ZM3.97975 1.05255L3.79871 -0.939242L3.34309 -0.897829L2.95078 -0.662453L3.97975 1.05255ZM-1.64484 9.95852C-1.34932 11.1406 -1.04647 11.9019 -0.819077 12.4324C-0.6931 12.7263 -0.652599 12.8121 -0.618953 12.9035C-0.596966 12.9631 -0.651828 12.8397 -0.651828 12.6314H3.34817C3.34817 12.1598 3.22751 11.7733 3.13435 11.5204C3.05284 11.2993 2.92885 11.0232 2.85743 10.8566C2.69004 10.4661 2.46653 9.91159 2.23573 8.98839L-1.64484 9.95852ZM-0.651828 12.6314C-0.651828 12.408 -0.603604 12.2714 -0.61561 12.3122C-0.620401 12.3285 -0.63725 12.3795 -0.681819 12.4949C-0.751031 12.6742 -0.91952 13.0836 -1.0574 13.4658C-1.35716 14.2965 -1.69887 15.4705 -1.6882 16.8574L2.31168 16.8266C2.30616 16.1083 2.48267 15.44 2.70517 14.8234C2.82842 14.4818 2.92208 14.2662 3.04972 13.9356C3.10359 13.7961 3.16885 13.6209 3.22156 13.4419C3.26705 13.2873 3.34817 12.9862 3.34817 12.6314H-0.651828ZM-1.6882 16.8574C-1.67784 18.2042 -1.34339 19.3153 -0.594511 20.0817C-0.225919 20.459 0.179002 20.6824 0.539821 20.8061C0.716319 20.8667 0.877223 20.9017 1.01324 20.9217C1.08138 20.9318 1.14389 20.9381 1.1998 20.9419C1.22779 20.9438 1.25422 20.9452 1.279 20.946C1.29139 20.9464 1.30338 20.9467 1.31495 20.9469C1.32074 20.947 1.32642 20.947 1.332 20.9471C1.33479 20.9471 1.33756 20.9471 1.3403 20.9471C1.34166 20.9471 1.3437 20.9471 1.34438 20.9471C1.34641 20.9471 1.34843 20.9471 1.34817 18.9471C1.34791 16.9471 1.34993 16.9471 1.35194 16.9471C1.3526 16.9471 1.35462 16.9471 1.35596 16.9471C1.35863 16.9472 1.3613 16.9472 1.36397 16.9472C1.36931 16.9472 1.37462 16.9473 1.37992 16.9474C1.39051 16.9476 1.40103 16.9478 1.41149 16.9482C1.43241 16.9489 1.45311 16.9499 1.47362 16.9513C1.51458 16.9541 1.55515 16.9584 1.59536 16.9643C1.67552 16.9761 1.7566 16.9947 1.83719 17.0224C2.00621 17.0803 2.15506 17.1722 2.26657 17.2863C2.50128 17.5266 2.31752 17.5851 2.31168 16.8266L-1.6882 16.8574ZM2.02084 20.8306L16.7577 15.5675L15.4123 11.8005L0.6755 17.0637L2.02084 20.8306ZM16.085 13.684C16.8469 15.5332 16.8484 15.5325 16.8499 15.5319C16.8504 15.5317 16.8519 15.5311 16.8529 15.5307C16.855 15.5298 16.857 15.529 16.8591 15.5281C16.8633 15.5263 16.8677 15.5245 16.8721 15.5226C16.881 15.5188 16.8904 15.5147 16.9003 15.5103C16.9202 15.5015 16.942 15.4915 16.9656 15.4802C17.0128 15.4577 17.0678 15.4297 17.1288 15.3956C17.2497 15.328 17.3999 15.2331 17.5613 15.1049C17.8827 14.8496 18.2779 14.4373 18.5415 13.8245C19.1192 12.4821 18.7771 10.9586 17.749 9.41661L14.4209 11.6356C15.0446 12.571 14.7025 12.6264 14.8672 12.2435C14.9244 12.1106 15.0099 12.0232 15.0732 11.973C15.1056 11.9473 15.1397 11.9249 15.1767 11.9042C15.1957 11.8936 15.2169 11.8826 15.2407 11.8713C15.2526 11.8655 15.2654 11.8597 15.279 11.8536C15.2859 11.8506 15.293 11.8475 15.3003 11.8444C15.304 11.8428 15.3077 11.8412 15.3115 11.8396C15.3134 11.8388 15.3153 11.838 15.3172 11.8372C15.3182 11.8368 15.3197 11.8362 15.3201 11.836C15.3216 11.8354 15.3231 11.8348 16.085 13.684ZM17.749 9.41661C17.0253 8.33122 16.1965 7.68312 15.5062 7.27011C15.1766 7.07293 14.8783 6.93026 14.7154 6.85033C14.6724 6.82925 14.6428 6.81457 14.6193 6.80256C14.5957 6.79048 14.5889 6.78655 14.5922 6.78843C14.5944 6.78971 14.6217 6.80513 14.6625 6.83364C14.7015 6.86082 14.7784 6.91761 14.8675 7.00673L12.0393 9.83539C12.2679 10.0639 12.5072 10.2043 12.615 10.2656C12.7404 10.3369 12.8715 10.4011 12.9537 10.4415C13.1459 10.5358 13.2907 10.6059 13.4525 10.7027C13.7449 10.8776 14.092 11.1422 14.4209 11.6356L17.749 9.41661ZM14.8675 7.00673C14.9972 7.13636 15.0504 7.23438 15.0107 7.17195C14.9924 7.14317 14.9576 7.08477 14.9054 6.98926C14.802 6.80016 14.6712 6.54116 14.5247 6.23798C14.2338 5.63594 13.9192 4.93927 13.7021 4.4509L10.0469 6.07546C10.2693 6.57595 10.6043 7.31843 10.9231 7.97822C11.0815 8.30595 11.2455 8.63354 11.3957 8.90824C11.4703 9.04463 11.552 9.18744 11.636 9.31936C11.6985 9.41764 11.8398 9.63586 12.0393 9.83539L14.8675 7.00673ZM3.97975 1.05255C4.16079 3.04434 4.15999 3.04441 4.15921 3.04448C4.15898 3.0445 4.15822 3.04457 4.15776 3.04461C4.15683 3.04469 4.15599 3.04477 4.15523 3.04483C4.15371 3.04497 4.15253 3.04507 4.15167 3.04514C4.14996 3.04528 4.14957 3.04531 4.15045 3.04524C4.15222 3.04511 4.15908 3.04459 4.17075 3.04385C4.19413 3.04238 4.23657 3.04006 4.29585 3.03819C4.41481 3.03443 4.59915 3.03254 4.83158 3.0425C5.30174 3.06266 5.93929 3.13012 6.61767 3.31277C7.9724 3.67752 9.32071 4.4416 10.0469 6.07546L13.7021 4.4509C12.323 1.3479 9.72394 0.00666666 7.65762 -0.549682C6.62547 -0.827582 5.68407 -0.924624 5.00291 -0.953826C4.65968 -0.968542 4.37528 -0.966325 4.1694 -0.959813C4.06626 -0.956551 3.98226 -0.952192 3.91981 -0.948267C3.88857 -0.946303 3.86266 -0.944444 3.84239 -0.942878C3.83226 -0.942095 3.82352 -0.941385 3.81623 -0.940771C3.81259 -0.940465 3.8093 -0.940182 3.80638 -0.939926C3.80492 -0.939798 3.80355 -0.939677 3.80227 -0.939563C3.80163 -0.939506 3.80074 -0.939426 3.80042 -0.939397C3.79955 -0.939319 3.79871 -0.939242 3.97975 1.05255ZM3.97975 1.05255C2.95078 -0.662453 2.95003 -0.662004 2.94926 -0.661543C2.94898 -0.661372 2.94819 -0.660897 2.94762 -0.660556C2.94649 -0.659873 2.94527 -0.659138 2.94397 -0.658353C2.94138 -0.656783 2.93845 -0.655008 2.93521 -0.65303C2.92871 -0.649075 2.92094 -0.644303 2.91192 -0.63872C2.89388 -0.627555 2.87087 -0.613128 2.84326 -0.595468C2.78809 -0.56017 2.71435 -0.51182 2.62518 -0.45064C2.4472 -0.328528 2.20561 -0.153843 1.92604 0.0717731C1.37171 0.519117 0.642256 1.18738 -0.0370093 2.06641C-1.40678 3.83901 -2.65328 6.60429 -1.62022 10.0481L2.21111 8.8988C1.66536 7.07948 2.26102 5.63431 3.1281 4.51224C3.56726 3.94393 4.05491 3.49381 4.43807 3.1846C4.62725 3.03194 4.7845 2.9188 4.88819 2.84766C4.93985 2.81222 4.97764 2.78759 4.99879 2.77406C5.00935 2.76731 5.01569 2.76336 5.01748 2.76225C5.01837 2.7617 5.01812 2.76186 5.01667 2.76274C5.01595 2.76318 5.01493 2.7638 5.01361 2.7646C5.01294 2.765 5.01221 2.76545 5.01139 2.76594C5.01098 2.76618 5.01031 2.76659 5.01011 2.76671C5.00942 2.76712 5.00872 2.76755 3.97975 1.05255Z" fill="black" mask="url(#path-1-inside-1)"/>
<path d="M9.76902 17.3686C9.76902 18.8219 8.59082 20.0001 7.13744 20.0001C5.68406 20.0001 4.50586 18.8219 4.50586 17.3686C4.50586 15.9152 6.08481 17.3685 7.13744 15.7896C8.71638 15.2632 9.76902 15.9152 9.76902 17.3686Z" fill="black"/>
<rect x="2.40039" width="3.15789" height="3.15789" rx="1.57895" fill="black"/>
</svg>
